<svg xmlns:x="&amp;ns_extend;" xmlns:i="&amp;ns_ai;" xmlns:graph="&amp;ns_graphs;" xmlns="http://www.w3.org/2000/svg" xmlns:xlink="http://www.w3.org/1999/xlink" version="1.1" id="Layer_1" x="0px" y="0px" viewBox="0 0 315 310" style="enable-background:new 0 0 315 315;" xml:space="preserve">
  <style type="text/css">
    .st0{fill:#2D2D2D;}	.st1{fill:#FFFFFF;}	.st2{opacity:0.3;fill:#2D2D2D;enable-background:new    ;}
  </style>
<metadata>
          <sfw>
                  <slices/>
        <sliceSourceBounds bottomLeftOrigin="true" height="315" width="315" x="0" y="0"/>
              </sfw>
      </metadata>

<g id="color_index_1" fill="#ffffff" style="fill: rgb(255, 255, 255);">
          <path d="M143.7,151.5V77.7c0-8.5,0.7-17,2-25.4c5.1-2.2,18.4-2.6,23.1,3.1c0.9,6.2,1.4,12.5,1.4,18.7v77.5&#9;&#9;c0,1,0.1,2.4,0.1,2.4h-0.1h-26.6C143.7,153.9,143.7,152.5,143.7,151.5z"/>
    <path d="M167.8,49.1c-7.3-3.2-14.5-3-21.7,0.4l0.4-2.5c1.2-7.6,4.4-14.8,9.2-20.8c0.3-0.4,0.8-0.6,1.3-0.6&#9;&#9;s0.9,0.2,1.3,0.6c2.4,3,4.4,6.3,5.9,9.8s2.7,7.2,3.3,11L167.8,49.1z"/>
    <path d="M134.7,114.3l-8.2,53.8h-25.6l0.4-2c1.6-8.9,5.9-17.2,12.2-23.6l9.7-9.9C128.2,127.4,132.2,121.1,134.7,114.3z&#9;&#9;"/>
    <path d="M213.3,168.1h-24.1l-8.7-51c2.5,5.7,6,11,10.5,15.5l9.7,9.9c6.4,6.5,10.6,14.7,12.2,23.6L213.3,168.1z"/>
    <path d="M154.1,156.9l-1.2,17.6H139v-9.6c0-3.7,1.3-7.1,3.5-9.7L154.1,156.9z"/>
    

    
    
    <defs>
          <linearGradient id="rocketFireGradient" x1="0%" y1="0%" x2="0%" y2="100%">
            <stop offset="0%" style="stop-color: #ffe435;stop-opacity:1"/>
            <stop offset="25%" style="stop-color:#ffdd00; stop-opacity:1"/>
            <stop offset="50%" style="stop-color:#ff5500; stop-opacity:1"/>
            <stop offset="75%" style="stop-color:#ff0000; stop-opacity:1"/>
            <stop offset="100%" style="stop-color:#aa0000; stop-opacity:1"/>
          </linearGradient>
        </defs>

          <!-- Applying the gradient to the path -->
        <path fill="url(#rocketFireGradient)" d="M315,315H160.4H0c16.6-1,33-2.1,48-3.6c33.4-4,73.9-40.7,65.5-28c-4.7,7.2-19.8,24.6,4.4,7.3             c14.3-11.3,22.1-26.4,25.2-45.1l10-61.1h8c-0.2,1.9,2.2,32.9,5.6,57.5c0.3,2,0.6,3.9,1.1,5.9c1,4.4,4.5,17,10.5,18             c3.5,0.6,2.8-3.9,2.2-7.1c-0.5-2.8-1-4.6,1.4-1.3c5.7,7.9,14.7,43.1,76,53.3C276.6,312.9,295.3,313.9,315,315z"/>
          <!-- <path fill="red"
          d="M315,315H160.4H0c16.6-1,33-2.1,48-3.6c33.4-4,73.9-40.7,65.5-28c-4.7,7.2-19.8,24.6,4.4,7.3&#9;&#9;c14.3-11.3,22.1-26.4,25.2-45.1l10-61.1h8c-0.2,1.9,2.2,32.9,5.6,57.5c0.3,2,0.6,3.9,1.1,5.9c1,4.4,4.5,17,10.5,18&#9;&#9;c3.5,0.6,2.8-3.9,2.2-7.1c-0.5-2.8-1-4.6,1.4-1.3c5.7,7.9,14.7,43.1,76,53.3C276.6,312.9,295.3,313.9,315,315z"/> -->
    <path d="M175,164.9v9.6h-13.9l-1.2-16.8l7.2,1l7,1C174.7,161.4,175,163.1,175,164.9z"/>
    
    
    
      </g>
<g>
          <path class="st2" d="M170.4,153.9h-12.9c0,0,0.6-82.2,3.2-84.1c2.6-1.8,5.1-8.4,2.6-13.6c-0.9-1.9-1.7-3.6-2.2-5&#9;&#9;c3.2,0.6,6.1,1.9,7.8,4c0,0.1,0,0.2,0,0.2c0.1,0.5,0.2,1.1,0.2,1.6c1.7,11.9,1.2,24,1.2,36c0,12.5,0,25,0,37.4c0,7,0,14,0,20.9&#9;&#9;C170.3,152.2,170.3,153.2,170.4,153.9z"/>
    <path class="st2" d="M167.8,49.1c-2.7-1.2-5.3-1.9-8-2.2c0-3.4-0.2-18.6-4.1-20.8c0.3-0.4,0.8-0.6,1.3-0.6s0.9,0.2,1.3,0.6&#9;&#9;c2.4,3,4.4,6.3,5.9,9.8s2.7,7.2,3.3,11L167.8,49.1z"/>
    <path class="st2" d="M175,164.9v9.6h-6.7c0,0,0.1-10.5-1.2-15.8l7,1C174.7,161.4,175,163.1,175,164.9z"/>
    <path class="st2" d="M208.3,168.1h-19.1l-7.3-42.8c2.7,4.9,6.9,11.8,12,15.4C199.2,144.4,205.7,154.1,208.3,168.1z"/>
      </g>
</svg>