<svg width="32" height="32" viewBox="0 0 32 32" fill="none" xmlns="http://www.w3.org/2000/svg">
<path d="M21.3334 9.09335V22.9067C21.3334 23.96 20.1734 24.6 19.28 24.0267L8.4267 17.12C8.23669 16.9998 8.08018 16.8334 7.97172 16.6364C7.86326 16.4394 7.80639 16.2182 7.80639 15.9933C7.80639 15.7685 7.86326 15.5473 7.97172 15.3503C8.08018 15.1533 8.23669 14.9869 8.4267 14.8667L19.28 7.97335C19.4811 7.84327 19.7136 7.76989 19.953 7.76094C20.1923 7.75199 20.4296 7.8078 20.6399 7.92249C20.8502 8.03718 21.0256 8.20649 21.1476 8.41257C21.2697 8.61864 21.3339 8.85384 21.3334 9.09335Z" fill="#A2F0FF"/>
</svg>
