<svg width="37" height="37" viewBox="0 0 37 37" fill="none" xmlns="http://www.w3.org/2000/svg">
<path d="M24.6929 3.08331H12.2517C9.82069 3.08617 7.49013 4.05324 5.77132 5.77234C4.0525 7.49145 3.08582 9.82217 3.08337 12.2531L3.08337 24.6944C3.08623 27.1254 4.0533 29.4559 5.7724 31.1747C7.49151 32.8936 9.82223 33.8602 12.2532 33.8627H24.6945C27.1254 33.8598 29.456 32.8928 31.1748 31.1737C32.8936 29.4546 33.8603 27.1238 33.8627 24.6929V12.2516C33.8599 9.82063 32.8928 7.49007 31.1737 5.77125C29.4546 4.05244 27.1239 3.08576 24.6929 3.08331ZM30.7671 24.6929C30.7671 25.4905 30.61 26.2804 30.3047 27.0173C29.9995 27.7543 29.552 28.4239 28.988 28.9879C28.424 29.552 27.7544 29.9994 27.0174 30.3047C26.2804 30.6099 25.4906 30.767 24.6929 30.767H12.2517C10.641 30.7666 9.09637 30.1265 7.95758 28.9874C6.81878 27.8483 6.17904 26.3036 6.17904 24.6929V12.2516C6.17945 10.6409 6.81958 9.09631 7.95867 7.95752C9.09775 6.81872 10.6425 6.17898 12.2532 6.17898H24.6945C26.3052 6.17939 27.8498 6.81952 28.9885 7.95861C30.1273 9.09769 30.7671 10.6424 30.7671 12.2531V24.6929Z" fill="white"/>
<path d="M18.4722 10.5126C16.3624 10.5159 14.3399 11.3556 12.8481 12.8477C11.3563 14.3397 10.517 16.3624 10.5142 18.4723C10.5166 20.5827 11.3559 22.606 12.8481 24.0984C14.3402 25.5908 16.3634 26.4306 18.4738 26.4334C20.5845 26.431 22.608 25.5914 24.1005 24.099C25.593 22.6065 26.4325 20.5829 26.435 18.4723C26.4317 16.3618 25.5916 14.3389 24.0988 12.847C22.6061 11.3552 20.5827 10.5162 18.4722 10.5142V10.5126ZM18.4722 23.3378C17.1822 23.3378 15.9451 22.8253 15.0329 21.9131C14.1207 21.001 13.6083 19.7638 13.6083 18.4738C13.6083 17.1838 14.1207 15.9466 15.0329 15.0345C15.9451 14.1223 17.1822 13.6098 18.4722 13.6098C19.7622 13.6098 20.9994 14.1223 21.9116 15.0345C22.8238 15.9466 23.3362 17.1838 23.3362 18.4738C23.3362 19.7638 22.8238 21.001 21.9116 21.9131C20.9994 22.8253 19.7622 23.3378 18.4722 23.3378Z" fill="white"/>
<path d="M26.4489 12.4798C27.5021 12.4798 28.356 11.626 28.356 10.5728C28.356 9.51952 27.5021 8.66571 26.4489 8.66571C25.3957 8.66571 24.5419 9.51952 24.5419 10.5728C24.5419 11.626 25.3957 12.4798 26.4489 12.4798Z" fill="white"/>
</svg>
