<svg width="37" height="37" viewBox="0 0 37 37" fill="none" xmlns="http://www.w3.org/2000/svg">
<path d="M25.5917 8.9725C24.5381 7.76927 23.9573 6.22432 23.9575 4.625H19.1938V23.7417C19.1578 24.7764 18.7213 25.7567 17.9763 26.4758C17.2314 27.1949 16.2362 27.5965 15.2008 27.5958C13.0117 27.5958 11.1925 25.8075 11.1925 23.5875C11.1925 20.9358 13.7517 18.9471 16.3879 19.7642V14.8925C11.0692 14.1833 6.41333 18.315 6.41333 23.5875C6.41333 28.7212 10.6683 32.375 15.1854 32.375C20.0263 32.375 23.9575 28.4437 23.9575 23.5875V13.8904C25.8892 15.2777 28.2084 16.022 30.5867 16.0179V11.2542C30.5867 11.2542 27.6883 11.3929 25.5917 8.9725Z" fill="white"/>
</svg>
