<svg width="17" height="17" viewBox="0 0 17 17" fill="none" xmlns="http://www.w3.org/2000/svg">
<path fill-rule="evenodd" clip-rule="evenodd" d="M5.31254 4.95835V4.60419C5.31254 3.75881 5.64837 2.94806 6.24614 2.35028C6.84391 1.75251 7.65466 1.41669 8.50004 1.41669C9.34542 1.41669 10.1562 1.75251 10.7539 2.35028C11.3517 2.94806 11.6875 3.75881 11.6875 4.60419V4.95835H13.4584C13.8494 4.95835 14.1667 5.2764 14.1667 5.67165V14.1724C14.1667 14.9515 13.5327 15.5834 12.7543 15.5834H4.24579C3.87144 15.5834 3.5124 15.4347 3.24756 15.1702C2.98272 14.9056 2.83375 14.5467 2.83337 14.1724V5.67235C2.83337 5.2771 3.14858 4.95835 3.54171 4.95835H5.31254ZM6.37504 4.95835H10.625V4.60419C10.625 4.0406 10.4012 3.5001 10.0026 3.10159C9.60413 2.70307 9.06363 2.47919 8.50004 2.47919C7.93646 2.47919 7.39595 2.70307 6.99744 3.10159C6.59892 3.5001 6.37504 4.0406 6.37504 4.60419V4.95835ZM5.31254 4.95835V7.79169H6.37504V4.95835H5.31254ZM10.625 4.95835V7.79169H11.6875V4.95835H10.625Z" fill="black"/>
</svg>
