<svg width="55" height="55" viewBox="0 0 55 55" fill="none" xmlns="http://www.w3.org/2000/svg">
<path d="M29.7917 33.0573L39.5313 27.5C40.066 27.1945 40.5342 27.2517 40.936 27.6719C41.3379 28.092 41.3852 28.5694 41.0781 29.1042L29.4479 47.3802C28.9896 48.1059 28.3403 48.4688 27.5 48.4688C26.6597 48.4688 26.0104 48.1059 25.5521 47.3802L13.9219 29.1042C13.6163 28.5694 13.6644 28.092 14.0662 27.6719C14.468 27.2517 14.9355 27.1945 15.4687 27.5L25.2083 33.0573V6.87501C25.2083 6.22571 25.4283 5.68106 25.8683 5.24105C26.3083 4.80106 26.8522 4.58182 27.5 4.58335C28.1478 4.58487 28.6924 4.80487 29.134 5.24335C29.5755 5.68182 29.7947 6.22571 29.7917 6.87501L29.7917 33.0573Z" fill="white"/>
</svg>
